# xmcd
#
# Track frame offsets: 
#        150
#        15364
#        76783
#        98270
#        120330
#        135804
#        156868
#        172745
#        186588
#        229850
#        241153
#        253220
#        266660
#        278720
#        290110
#        303655
#
# Disc length: 4200 seconds
#
# Revision: 0
# Processed by: cddbd v1.5.2PL0 Copyright (c) Steve Scherf et al.
# Submitted via: ExactAudioCopy v0.95b1
#
DISCID=c8106610
DTITLE=The Temptations - Masterpiece. Cloud Nine. 2 in 1
DYEAR=1900
DGENRE=R&B
TTITLE0=Hey Girl (I Like Your Style)
TTITLE1=Masterpiece
TTITLE2=Ma
TTITLE3=Law of the Land
TTITLE4=Plastic Man
TTITLE5=Hurry Tomorrow
TTITLE6=Cloud Nine
TTITLE7=I Heard It Through the Grapevine
TTITLE8=Runaway Child, Running Wild
TTITLE9=Love Is a Hurtin' Thing
TTITLE10=Hey Girl
TTITLE11=Why Did She Have to Leave Me
TTITLE12=I Need Your Lovin'
TTITLE13=Don't Let Him Take Your Love From Me
TTITLE14=I Gotta Find a Way (To Get You Back)
TTITLE15=Gonna Keep On Tryin' Till I Win Your Love
EXTD=
EXTT0=
EXTT1=
EXTT2=
EXTT3=
EXTT4=
EXTT5=
EXTT6=
EXTT7=
EXTT8=
EXTT9=
EXTT10=
EXTT11=
EXTT12=
EXTT13=
EXTT14=
EXTT15=
PLAYORDER=
